<svg xmlns="http://www.w3.org/2000/svg" viewBox="0 15.5 170.10000610351562 34.400001525878906" data-asc="0.984" width="170.10000610351562" height="34.400001525878906"><defs/><g><g fill="#000000"><g transform="translate(0, 0)"><path d="M11.70 49.20Q9.75 49.20 8.78 48.20Q7.80 47.20 7.80 45.40L7.80 27.60L0 27.60L0 24.90L7.80 24.90L7.80 15.80L10.80 15.80L10.80 24.90L19.30 24.90L19.30 27.60L10.80 27.60L10.80 45Q10.80 46.50 12.30 46.50L18 46.50L18 49.20L11.70 49.20ZM26 49.20L26 24.90L28.90 24.90L28.90 27.95L29.50 27.95Q30.20 26.30 31.58 25.55Q32.95 24.80 35.40 24.80L38.25 24.80L38.25 27.60L35.05 27.60Q32.30 27.60 30.65 29.15Q29 30.70 29 34L29 49.20L26 49.20ZM54.65 49.90Q50.95 49.90 48.17 48.33Q45.40 46.75 43.88 43.93Q42.35 41.10 42.35 37.35L42.35 36.75Q42.35 33 43.88 30.18Q45.40 27.35 48.17 25.78Q50.95 24.20 54.65 24.20Q58.35 24.20 61.13 25.78Q63.90 27.35 65.42 30.18Q66.95 33 66.95 36.75L66.95 37.35Q66.95 41.10 65.42 43.93Q63.90 46.75 61.13 48.33Q58.35 49.90 54.65 49.90M54.65 47.20Q58.95 47.20 61.45 44.48Q63.95 41.75 63.95 37.25L63.95 36.85Q63.95 32.35 61.45 29.63Q58.95 26.90 54.65 26.90Q50.40 26.90 47.88 29.63Q45.35 32.35 45.35 36.85L45.35 37.25Q45.35 41.75 47.88 44.48Q50.40 47.20 54.65 47.20ZM74.55 49.20L74.55 24.90L77.45 24.90L77.45 29.40L78.05 29.40Q78.95 27.45 81 25.93Q83.05 24.40 86.95 24.40Q89.60 24.40 91.80 25.50Q94 26.60 95.33 28.83Q96.65 31.05 96.65 34.40L96.65 49.20L93.65 49.20L93.65 34.60Q93.65 30.60 91.65 28.85Q89.65 27.10 86.30 27.10Q82.55 27.10 80.05 29.58Q77.55 32.05 77.55 37.05L77.55 49.20L74.55 49.20ZM105.15 49.20L105.15 24.90L108.15 24.90L108.15 49.20L105.15 49.20M106.65 20.70Q105.55 20.70 104.80 19.95Q104.05 19.20 104.05 18.10Q104.05 16.95 104.80 16.23Q105.55 15.50 106.65 15.50Q107.80 15.50 108.53 16.23Q109.25 16.95 109.25 18.10Q109.25 19.20 108.53 19.95Q107.80 20.70 106.65 20.70ZM128.05 49.90Q124.50 49.90 121.72 48.38Q118.95 46.85 117.35 44Q115.75 41.15 115.75 37.30L115.75 36.80Q115.75 32.90 117.35 30.08Q118.95 27.25 121.72 25.73Q124.50 24.20 128.05 24.20Q131.55 24.20 133.97 25.53Q136.40 26.85 137.78 28.98Q139.15 31.10 139.50 33.45L136.55 34.05Q136.30 32.10 135.30 30.48Q134.30 28.85 132.50 27.88Q130.70 26.90 128.05 26.90Q125.40 26.90 123.30 28.13Q121.20 29.35 119.97 31.58Q118.75 33.80 118.75 36.85L118.75 37.25Q118.75 40.30 119.97 42.53Q121.20 44.75 123.30 45.98Q125.40 47.20 128.05 47.20Q132.05 47.20 134.15 45.13Q136.25 43.05 136.75 40.05L139.70 40.65Q139.25 43 137.82 45.13Q136.40 47.25 133.97 48.58Q131.55 49.90 128.05 49.90ZM154.55 49.90Q152 49.90 149.92 49.03Q147.85 48.15 146.65 46.45Q145.45 44.75 145.45 42.35Q145.45 39.90 146.65 38.30Q147.85 36.70 149.90 35.90Q151.95 35.10 154.45 35.10L163.35 35.10L163.35 33.15Q163.35 30.20 161.65 28.55Q159.95 26.90 156.70 26.90Q153.50 26.90 151.63 28.48Q149.75 30.05 149.10 32.70L146.20 31.85Q146.80 29.70 148.10 27.98Q149.40 26.25 151.55 25.23Q153.70 24.20 156.70 24.20Q161.30 24.20 163.82 26.60Q166.35 29 166.35 33.30L166.35 45.10Q166.35 46.60 167.75 46.60L170.10 46.60L170.10 49.20L166.90 49.20Q165.35 49.20 164.45 48.28Q163.55 47.35 163.55 45.75L163.55 45.40L163.05 45.40Q162.40 46.50 161.38 47.55Q160.35 48.60 158.70 49.25Q157.05 49.90 154.55 49.90M154.75 47.20Q158.60 47.20 160.97 44.88Q163.35 42.55 163.35 38.30L163.35 37.70L154.50 37.70Q151.90 37.70 150.17 38.83Q148.45 39.95 148.45 42.30Q148.45 44.65 150.22 45.93Q152 47.20 154.75 47.20Z"/></g></g></g></svg>